HIERARCHY
ROOT Hips
{
	OFFSET 0.00000 0.00000 0.00000
	CHANNELS 6 Xposition Yposition Zposition Zrotation Yrotation Xrotation 
	JOINT LHipJoint
	{
		OFFSET 0 0 0
		CHANNELS 3 Zrotation Yrotation Xrotation
		JOINT LeftUpLeg
		{
			OFFSET 1.37590 -1.78394 0.89329
			CHANNELS 3 Zrotation Yrotation Xrotation
			JOINT LeftLeg
			{
				OFFSET 2.47928 -6.81178 0.00000
				CHANNELS 3 Zrotation Yrotation Xrotation
				JOINT LeftFoot
				{
					OFFSET 2.63345 -7.23535 0.00000
					CHANNELS 3 Zrotation Yrotation Xrotation
					JOINT LeftToeBase
					{
						OFFSET 0.23938 -0.65768 2.27012
						CHANNELS 3 Zrotation Yrotation Xrotation
						End Site
						{
							OFFSET 0.00000 -0.00000 1.18363
						}
					}
				}
			}
		}
	}
	JOINT RHipJoint
	{
		OFFSET 0 0 0
		CHANNELS 3 Zrotation Yrotation Xrotation
		JOINT RightUpLeg
		{
			OFFSET -1.33617 -1.78394 0.89329
			CHANNELS 3 Zrotation Yrotation Xrotation
			JOINT RightLeg
			{
				OFFSET -2.56922 -7.05888 0.00000
				CHANNELS 3 Zrotation Yrotation Xrotation
				JOINT RightFoot
				{
					OFFSET -2.56568 -7.04915 0.00000
					CHANNELS 3 Zrotation Yrotation Xrotation
					JOINT RightToeBase
					{
						OFFSET -0.27533 -0.75646 2.18105
						CHANNELS 3 Zrotation Yrotation Xrotation
						End Site
						{
							OFFSET -0.00000 -0.00000 1.15233
						}
					}
				}
			}
		}
	}
	JOINT LowerBack
	{
		OFFSET 0 0 0
		CHANNELS 3 Zrotation Yrotation Xrotation
		JOINT Spine
		{
			OFFSET 0.06190 2.15152 -0.00935
			CHANNELS 3 Zrotation Yrotation Xrotation
			JOINT Spine1
			{
				OFFSET 0.06334 2.15332 0.00872
				CHANNELS 3 Zrotation Yrotation Xrotation
				JOINT Neck
				{
					OFFSET 0 0 0
					CHANNELS 3 Zrotation Yrotation Xrotation
					JOINT Neck1
					{
						OFFSET -0.04202 1.66908 0.23524
						CHANNELS 3 Zrotation Yrotation Xrotation
						JOINT Head
						{
							OFFSET 0.07510 1.69357 -0.24440
							CHANNELS 3 Zrotation Yrotation Xrotation
							End Site
							{
								OFFSET 0.02556 1.71719 -0.11000
							}
						}
					}
				}
				JOINT LeftShoulder
				{
					OFFSET 0 0 0
					CHANNELS 3 Zrotation Yrotation Xrotation
					JOINT LeftArm
					{
						OFFSET 3.67168 1.26306 -0.41342
						CHANNELS 3 Zrotation Yrotation Xrotation
						JOINT LeftForeArm
						{
							OFFSET 4.68510 -0.00000 -0.00000
							CHANNELS 3 Zrotation Yrotation Xrotation
							JOINT LeftHand
							{
								OFFSET 3.39626 -0.00000 -0.00000
								CHANNELS 3 Zrotation Yrotation Xrotation
								JOINT LeftFingerBase
								{
									OFFSET 0 0 0
									CHANNELS 3 Zrotation Yrotation Xrotation
									JOINT LeftHandIndex1
									{
										OFFSET 0.48608 -0.00000 -0.00000
										CHANNELS 3 Zrotation Yrotation Xrotation
										End Site
										{
											OFFSET 0.39189 -0.00000 -0.00000
										}
									}
								}
								JOINT LThumb
								{
									OFFSET 0 0 0
									CHANNELS 3 Zrotation Yrotation Xrotation
									End Site
									{
										OFFSET 0.39787 -0.00000 0.39787
									}
								}
							}
						}
					}
				}
				JOINT RightShoulder
				{
					OFFSET 0 0 0
					CHANNELS 3 Zrotation Yrotation Xrotation
					JOINT RightArm
					{
						OFFSET -3.04136 1.42992 -0.76390
						CHANNELS 3 Zrotation Yrotation Xrotation
						JOINT RightForeArm
						{
							OFFSET -5.55576 -0.00000 -0.00000
							CHANNELS 3 Zrotation Yrotation Xrotation
							JOINT RightHand
							{
								OFFSET -3.32774 -0.00000 -0.00000
								CHANNELS 3 Zrotation Yrotation Xrotation
								JOINT RightFingerBase
								{
									OFFSET 0 0 0
									CHANNELS 3 Zrotation Yrotation Xrotation
									JOINT RightHandIndex1
									{
										OFFSET -0.50763 -0.00000 -0.00000
										CHANNELS 3 Zrotation Yrotation Xrotation
										End Site
										{
											OFFSET -0.40926 -0.00000 -0.00000
										}
									}
								}
								JOINT RThumb
								{
									OFFSET 0 0 0
									CHANNELS 3 Zrotation Yrotation Xrotation
									End Site
									{
										OFFSET -0.41551 -0.00000 0.41551
									}
								}
							}
						}
					}
				}
			}
		}
	}
}
MOTION
Frames: 8
Frame Time: .0083333
31.2615 17.6051 5.5544 0 0 0 0 0 0 -21 0 0 0 0 0 0 0 0 0 0 0 0 0 0 21 0 0 0 0 0 0 0 0 0 0 0 0 0 0 0 0 0 0 0 0 0 0 -16 0 0 21 0 0 11 0 0 0 -8 0 0 0 0 0 0 0 0 0 0 0 0 0 0 0 0 0 0 0 0 8 0 0 0 0 0 0 0 0 0 0 0 0 0 0 0 0 0
31.2615 17.6051 5.5544 62.6361 -85.6408 -65.1775 0.0000 0.0000 0.0000 -28.8243 -2.8024 -3.4432 1.2921 7.2022 20.3157 0.3934 -3.8001 -11.1551 0.2409 3.1589 8.7214 0.0000 0.0000 0.0000 3.9235 7.7346 -64.9800 -11.0935 -17.9805 63.0848 -39.4962 8.7209 -166.8326 -1.1677 -6.8595 19.2999 -3.5285 -4.7793 5.8377 1.0560 -6.5973 -1.2467 3.6398 -3.1793 -4.0317 -5.0883 -1.5268 -20.1628 5.3866 -1.7837 17.2042 2.4369 -0.6044 8.7942 -0.0000 -0.0000 0.0000 -88.0060 -9.9414 36.7156 60.9760 -56.5645 -35.1544 -0.0000 0.0000 -7.3143 11.3990 6.8854 1.3846 -7.1250 0.0000 -0.0000 -12.9507 36.7255 2.6913 -0.0000 -0.0000 0.0000 76.5585 -20.4309 20.4954 -27.8678 38.9943 -10.0404 0.0000 0.0000 3.2472 -5.1342 -7.4031 0.6633 7.1250 -0.0000 -0.0000 18.2030 -36.8384 3.8105
31.1513 17.6233 5.5444 55.2134 -85.5241 -57.9835 0.0000 0.0000 0.0000 -28.6193 -2.7204 -2.5012 1.2351 7.0477 19.8568 0.3955 -4.0581 -11.1836 0.2415 3.1626 8.7318 0.0000 0.0000 0.0000 3.4327 7.9849 -67.7710 -10.9100 -17.8908 62.4890 -39.4846 8.4791 -166.7611 -1.1730 -6.8744 19.3438 -3.5248 -5.0404 6.0349 1.1972 -6.9455 -1.1506 3.8224 -3.3537 -3.9962 -4.9380 -1.4234 -20.2425 5.1897 -1.6388 17.2145 2.3640 -0.5462 8.8002 0.0000 0.0000 0.0000 -87.3041 -11.0558 37.1033 61.8270 -56.7775 -35.8655 -0.0000 0.0000 -7.0649 11.5258 6.7928 1.3817 -7.1250 0.0000 -0.0000 -12.8283 36.6411 2.6919 0.0000 0.0000 0.0000 76.2976 -21.2896 20.0247 -28.0552 39.1670 -10.1585 0.0000 0.0000 3.1150 -5.1288 -7.3540 0.6582 7.1250 -0.0000 -0.0000 18.1952 -36.7911 3.8308
31.0357 17.6390 5.5279 47.0088 -85.4732 -50.0219 0.0000 0.0000 0.0000 -28.1761 -2.6776 -1.5040 1.1765 6.8844 19.3733 0.4007 -4.2510 -11.2579 0.2472 3.1994 8.8343 0.0000 0.0000 0.0000 3.1605 8.2983 -70.3880 -10.8104 -17.8410 62.1642 -39.4619 8.5761 -166.4906 -1.2824 -7.1763 20.2389 -3.4738 -5.2657 6.5315 1.4748 -7.2501 -1.2327 4.1632 -3.4926 -4.3050 -4.8629 -1.3729 -20.3641 4.9353 -1.5381 17.4146 2.2802 -0.5207 8.8817 0.0000 -0.0000 0.0000 -86.7591 -11.9202 37.5273 62.5364 -56.9488 -36.4594 -0.0000 0.0000 -6.8590 11.4690 6.7850 1.3731 -7.1250 0.0000 -0.0000 -12.8739 36.6300 2.7055 0.0000 -0.0000 0.0000 75.8779 -22.5064 19.6796 -28.3846 39.4679 -10.3673 0.0000 0.0000 3.0014 -5.0744 -7.4205 0.6570 7.1250 -0.0000 -0.0000 18.2558 -36.8510 3.8167
30.9216 17.6540 5.5191 44.6435 -85.2411 -47.7967 0.0000 0.0000 0.0000 -28.3030 -2.6356 -0.5886 1.1162 6.7116 18.8638 0.4147 -4.1920 -11.4532 0.2335 3.1100 8.5851 0.0000 0.0000 0.0000 2.5450 8.6184 -72.8133 -10.8341 -17.8529 62.2416 -39.4558 8.8645 -166.3592 -1.3263 -7.2933 20.5873 -3.6497 -5.4096 6.5557 1.5407 -7.4544 -1.1759 4.3412 -3.5934 -4.2098 -4.8445 -1.3036 -20.2654 4.9138 -1.4470 17.3775 2.2813 -0.4803 8.8462 0.0000 0.0000 0.0000 -86.0580 -12.8993 37.9515 62.8535 -57.0236 -36.7254 -0.0000 0.0000 -6.9601 11.4208 6.8569 1.3816 -7.1250 0.0000 -0.0000 -12.9274 36.6985 2.6950 0.0000 0.0000 0.0000 75.7016 -23.2664 19.1121 -28.3488 39.4353 -10.3445 0.0000 0.0000 3.1483 -4.9282 -7.2635 0.6246 7.1250 -0.0000 -0.0000 18.3362 -36.6921 3.9097
30.8067 17.6689 5.5082 40.3641 -85.0436 -43.7181 0.0000 0.0000 0.0000 -28.2018 -2.6070 0.3743 1.0613 6.5498 18.3882 0.4273 -4.2111 -11.6265 0.2274 3.0697 8.4728 0.0000 0.0000 0.0000 2.0691 8.8681 -75.1799 -10.8428 -17.8573 62.2699 -39.4538 9.1768 -166.2631 -1.3585 -7.3776 20.8390 -3.6947 -5.5828 6.7190 1.6598 -7.6902 -1.1230 4.5214 -3.7099 -4.2016 -4.7747 -1.2492 -20.2700 4.8148 -1.3720 17.4030 2.2460 -0.4513 8.8505 0.0000 -0.0000 0.0000 -85.3602 -13.8842 38.3260 63.2840 -57.1234 -37.0867 -0.0000 0.0000 -6.9980 11.3859 6.8872 1.3833 -7.1250 0.0000 -0.0000 -12.9619 36.7265 2.6934 0.0000 -0.0000 0.0000 75.4947 -24.1189 18.6132 -28.4209 39.5009 -10.3903 0.0000 0.0000 3.1554 -4.8367 -7.1987 0.6075 7.1250 -0.0000 -0.0000 18.3945 -36.6246 3.9551
30.6910 17.6827 5.4976 36.5757 -84.8497 -40.1392 0.0000 0.0000 0.0000 -28.1097 -2.6086 1.3489 1.0107 6.3965 17.9393 0.4439 -4.1686 -11.8511 0.2210 3.0264 8.3522 0.0000 0.0000 0.0000 1.6541 9.0848 -77.3611 -10.9104 -17.8910 62.4903 -39.4599 9.6102 -166.2156 -1.3672 -7.4003 20.9069 -3.7114 -5.7417 6.8340 1.7580 -7.9035 -1.0338 4.6548 -3.8189 -4.1357 -4.7015 -1.2059 -20.2801 4.7480 -1.3193 17.4066 2.2181 -0.4288 8.8497 -0.0000 0.0000 0.0000 -84.6370 -14.8826 38.6725 63.5895 -57.1930 -37.3434 -0.0000 0.0000 -7.1031 11.3271 6.9307 1.3846 -7.1250 0.0000 -0.0000 -13.0189 36.7661 2.6929 -0.0000 0.0000 0.0000 75.3516 -24.8897 18.0911 -28.4402 39.5184 -10.4026 0.0000 0.0000 3.1632 -4.7359 -7.1187 0.5882 7.1250 -0.0000 -0.0000 18.4567 -36.5421 4.0088
30.5749 17.6952 5.4874 33.0404 -84.6647 -36.8292 0.0000 0.0000 0.0000 -28.0112 -2.6380 2.3356 0.9649 6.2542 17.5239 0.4638 -4.0819 -12.1179 0.2151 2.9856 8.2387 0.0000 0.0000 0.0000 1.3238 9.2618 -79.3337 -11.0330 -17.9512 62.8889 -39.4741 10.0825 -166.2316 -1.3457 -7.3444 20.7397 -3.6916 -5.8893 6.9189 1.8387 -8.0983 -0.9080 4.7422 -3.9223 -4.0231 -4.6237 -1.1728 -20.2994 4.7143 -1.2881 17.3869 2.1977 -0.4122 8.8440 0.0000 -0.0000 0.0000 -83.8976 -15.8774 38.9822 63.7950 -57.2392 -37.5162 -0.0000 0.0000 -7.2403 11.2586 6.9682 1.3835 -7.1250 0.0000 -0.0000 -13.0827 36.7992 2.6958 0.0000 -0.0000 0.0000 75.2724 -25.5702 17.5546 -28.4066 39.4879 -10.3813 0.0000 0.0000 3.1391 -4.6432 -7.0493 0.5711 7.1250 -0.0000 -0.0000 18.5147 -36.4702 4.0567
